PathFileType	4	(X/Y/Z)	C:/Users/opensim2020/Desktop/walking_exp_matlab/subject03_walking07_straight_01.trc																																																																																																																																								
DataRate	CameraRate	NumFrames	NumMarkers	Units	OrigDataRate	OrigDataStartFrame	OrigNumFrames																																																																																																																																				
100	100	5	46	mm	100	897	310																																																																																																																																				
Frame#	Time	LFHD			RFHD			LBHD			RBHD			C7			T10			CLAV			STRN			RBAK			LSHO			LUPA			LELB			LFRM			LWRA			LWRB			LFIN			RSHO			RUPA			RELB			RFRM			RWRA			RWRB			RFIN			LASI			RASI			LPSI			RPSI			LTHI			LKNE			LTIB			LANK			LHEE			LTOE			RTHI			RKNE			RTIB			RANK			RHEE			RTOE			*39			*40			*41			*42			*43			*44			*45		
		X1	Y1	Z1	X2	Y2	Z2	X3	Y3	Z3	X4	Y4	Z4	X5	Y5	Z5	X6	Y6	Z6	X7	Y7	Z7	X8	Y8	Z8	X9	Y9	Z9	X10	Y10	Z10	X11	Y11	Z11	X12	Y12	Z12	X13	Y13	Z13	X14	Y14	Z14	X15	Y15	Z15	X16	Y16	Z16	X17	Y17	Z17	X18	Y18	Z18	X19	Y19	Z19	X20	Y20	Z20	X21	Y21	Z21	X22	Y22	Z22	X23	Y23	Z23	X24	Y24	Z24	X25	Y25	Z25	X26	Y26	Z26	X27	Y27	Z27	X28	Y28	Z28	X29	Y29	Z29	X30	Y30	Z30	X31	Y31	Z31	X32	Y32	Z32	X33	Y33	Z33	X34	Y34	Z34	X35	Y35	Z35	X36	Y36	Z36	X37	Y37	Z37	X38	Y38	Z38	X39	Y39	Z39	X40	Y40	Z40	X41	Y41	Z41	X42	Y42	Z42	X43	Y43	Z43	X44	Y44	Z44	X45	Y45	Z45	X46	Y46	Z46
																																																																																																																																											
233	2.32	700.37421	1616.82043	1411.23206	709.3548	1621.15771	1544.70361	575.44958	1566.12695	1424.68579	588.62695	1570.23706	1554.64441	557.87408	1409.58789	1478.94543	523.52643	1098.16589	1458.30383	680.92804	1334.17529	1470.776	722.46838	1168.70898	1460.9209	508.07062	1233.13721	1570.46899	627.39813	1376.86084	1317.35034	586.25812	1181.84644	1245.00488	572.15802	1059.71558	1229.62988	573.60889	929.52802	1220.82776	574.94232	809.06165	1240.797	544.1109	820.90863	1196.30652	540.7912	735.18884	1201.26868	639.1731	1355.03186	1632.13171	685.42792	1143.08325	1706.72534	731.7218	1041.09241	1718.73413	798.8606	922.24329	1714.28796	859.80103	848.49371	1670.81323	837.9599	830.00208	1716.53613	890.22552	779.77716	1703.50269	695.45172	926.20996	1356.24475	671.04272	935.78967	1591.38196	530.66815	950.98511	1384.27051	514.7002	970.54297	1532.0802	692.23383	621.70538	1317.13025	754.052	461.09271	1372.79993	770.66449	273.42188	1378.38562	835.4021	72.75828	1418.74487	812.33826	30.30347	1463.06213	987.47498	77.24921	1421.8894	562.31934	651.27637	1623.90637	537.06244	472.64664	1590.68127	435.1553	306.20416	1582.25439	353.22214	104.55947	1523.32007	307.18826	89.1797	1468.89136	483.97107	33.74148	1502.82239	NaN	NaN	NaN	616.71057	1670.05518	1463.17676	NaN	NaN	NaN	NaN	NaN	NaN	NaN	NaN	NaN	NaN	NaN	NaN	NaN	NaN	NaN
234	2.33	710.3255	1616.35632	1410.98792	719.12854	1620.60596	1544.35229	585.38776	1565.22388	1424.2594	598.58716	1569.30798	1554.23999	568.37067	1408.74561	1478.10107	534.7002	1097.13953	1457.61768	691.74261	1333.59863	1470.57458	733.54578	1168.13538	1461.0437	518.55981	1232.18433	1569.4259	638.6192	1376.05615	1316.79578	597.23901	1181.08411	1244.48962	582.67035	1058.89209	1229.07458	583.0094	928.72522	1220.1709	582.92157	808.08496	1240.16016	552.67657	820.55206	1195.30896	547.51495	734.57483	1201.52161	649.21033	1354.40686	1631.71594	695.26666	1142.43896	1706.31152	741.50958	1040.45361	1718.33801	808.98712	921.89917	1713.89258	870.38239	848.63794	1670.47107	848.19659	829.70801	1715.82715	901.01807	779.92493	1702.80444	707.40863	925.60022	1356.61743	680.55676	934.70782	1592.19727	541.86902	950.43811	1383.13318	525.4798	969.50739	1531.22693	704.29425	621.25232	1318.14868	765.1496	460.49673	1373.96008	779.85132	272.22147	1379.77417	841.5047	71.03395	1421.52991	817.2536	30.00974	1464.78113	993.36871	73.63494	1426.28186	571.46417	650.76538	1624.12488	545.4433	472.07999	1591.41614	440.68692	307.1795	1582.7489	355.03702	107.05981	1523.88831	308.74582	92.81582	1469.43945	484.19531	33.68327	1502.94788	NaN	NaN	NaN	626.44293	1669.24963	1462.83386	NaN	NaN	NaN	NaN	NaN	NaN	NaN	NaN	NaN	NaN	NaN	NaN	NaN	NaN	NaN
235	2.34	720.255	1615.92371	1410.61633	729.04749	1620.146	1544.12378	595.41852	1564.3783	1423.75977	608.59839	1568.42114	1553.77991	578.91064	1407.85718	1477.28479	546.02222	1096.25781	1457.14087	702.57208	1333.03992	1470.21582	744.75958	1167.67847	1461.12463	529.15265	1231.37476	1568.44897	650.00568	1375.30542	1316.19922	608.61932	1180.31946	1243.80432	593.75757	1058.34473	1228.44727	593.08112	928.13098	1219.48938	591.90869	807.63092	1239.18164	561.87549	820.15082	1194.3905	555.75262	734.31354	1200.22339	659.35986	1353.91174	1631.25024	704.65143	1141.7616	1705.69226	751.00854	1039.82996	1717.9231	818.67084	921.39221	1713.47241	880.50739	848.45898	1670.16687	858.07861	829.27747	1715.2926	911.2392	779.80664	1702.33887	719.64288	925.02228	1356.68323	692.17712	933.90466	1591.84778	553.62152	949.87549	1382.53577	536.89984	968.51959	1530.53711	716.98169	621.08551	1318.81616	776.73926	459.95566	1374.875	788.07709	270.72675	1381.33948	845.50128	69.15959	1424.11206	818.55811	29.47953	1465.8175	997.36365	67.46519	1431.43164	581.10468	650.1886	1624.52625	554.49622	471.43387	1592.41821	446.62042	308.21457	1583.52307	356.97604	109.81513	1524.63049	310.58737	96.84932	1470.17249	484.4718	33.59462	1503.08521	NaN	NaN	NaN	636.27649	1668.67334	1462.91235	NaN	NaN	NaN	NaN	NaN	NaN	NaN	NaN	NaN	NaN	NaN	NaN	NaN	NaN	NaN
236	2.35	730.24341	1615.66138	1410.11646	738.90436	1619.82898	1543.71497	605.5694	1563.62695	1423.18298	618.63019	1567.64319	1553.22827	589.34344	1407.16528	1476.29395	557.74542	1095.42419	1456.75757	713.49072	1332.61633	1469.76172	756.09308	1167.36304	1461.0835	539.8642	1230.55457	1567.34546	661.41095	1374.66382	1315.52161	620.18311	1179.578	1243.19189	604.96808	1057.60291	1227.84912	603.56335	927.43359	1218.78894	599.01434	805.12317	1241.01233	571.80389	819.72449	1193.41333	564.54889	733.86078	1199.41333	669.55872	1353.56848	1630.67749	714.03229	1141.14575	1705.20789	760.23279	1039.15637	1717.47803	827.93079	920.77142	1713.07874	889.93677	848.03125	1669.94775	867.49768	828.65955	1714.86829	920.66241	779.33478	1701.96106	731.78754	924.80414	1356.87415	702.67157	932.72668	1592.57349	565.724	949.51025	1381.82336	548.31421	967.62286	1530.0271	729.98193	621.146	1319.38684	787.86908	459.38824	1375.89465	795.80463	269.66443	1383.38147	849.58557	68.44441	1425.33008	819.78253	30.7611	1466.9939	1000.89795	57.73791	1436.50464	591.33008	649.51837	1624.91272	564.29749	470.68976	1593.51379	453.00491	309.42578	1584.62256	359.31555	112.93559	1525.58276	312.79034	101.33346	1471.18018	484.81244	33.52432	1503.29089	NaN	NaN	NaN	646.26648	1668.57629	1463.79932	NaN	NaN	NaN	NaN	NaN	NaN	NaN	NaN	NaN	NaN	NaN	NaN	NaN	NaN	NaN
237	2.36	740.29626	1615.87024	1409.57263	748.82666	1620.05188	1543.25256	615.77985	1563.08948	1422.4458	628.73083	1567.13416	1552.62231	599.72229	1406.78369	1475.17224	569.33807	1094.78027	1456.38843	724.42578	1332.66516	1469.29968	767.30151	1167.54651	1461.08508	550.38684	1229.97302	1566.03931	672.79834	1374.22058	1314.70435	631.81787	1178.92834	1242.51404	616.58752	1057.01819	1227.19958	614.53668	926.7677	1218.15344	609.1026	804.52612	1240.35181	582.30371	819.24591	1192.54126	574.19733	733.49615	1198.48999	679.72845	1353.44629	1630.12048	723.53784	1140.74414	1704.87488	769.24188	1038.5061	1717.09143	836.72223	920.02203	1712.7406	898.9364	847.29865	1669.81995	876.03333	827.83929	1714.52295	929.30853	778.54919	1701.80408	743.73492	924.81842	1356.77478	714.91986	932.02557	1592.13916	577.85419	949.49097	1381.12573	559.91595	966.84326	1529.63672	742.97461	622.18805	1319.78235	798.03754	459.38235	1376.70447	804.25812	270.06061	1384.24133	854.44678	68.43479	1425.01453	821.72498	32.29427	1466.07471	1004.48535	50.3718	1440.37939	602.33405	648.72162	1625.24438	574.96393	469.83783	1594.60071	460.1026	310.79941	1585.62842	362.45303	116.52823	1527.07532	315.4837	106.53456	1472.56604	485.17215	33.47126	1503.50671	NaN	NaN	NaN	655.99811	1668.22266	1463.17126	NaN	NaN	NaN	NaN	NaN	NaN	NaN	NaN	NaN	NaN	NaN	NaN	NaN	NaN	NaN
